<mxfile host="Electron" modified="2024-07-02T19:18:50.137Z" agent="Mozilla/5.0 (Windows NT 10.0; Win64; x64) AppleWebKit/537.36 (KHTML, like Gecko) draw.io/24.4.13 Chrome/124.0.6367.207 Electron/30.0.6 Safari/537.36" etag="xjTPyk5h4096kU7cbOM3" version="24.4.13" type="device">
  <diagram name="Page-1" id="f4_mMb3qCUxp8LVXkgMt">
    <mxGraphModel dx="819" dy="478" grid="1" gridSize="10" guides="1" tooltips="1" connect="1" arrows="1" fold="1" page="1" pageScale="1" pageWidth="850" pageHeight="1100" math="0" shadow="0">
      <root>
        <mxCell id="0" />
        <mxCell id="1" parent="0" />
        <mxCell id="NQIvPv-o4hWY-YjERhu4-1" value="" style="endArrow=none;html=1;rounded=0;strokeWidth=0.5;strokeColor=#666666;" edge="1" parent="1">
          <mxGeometry width="50" height="50" relative="1" as="geometry">
            <mxPoint x="280" y="200" as="sourcePoint" />
            <mxPoint x="560" y="200" as="targetPoint" />
          </mxGeometry>
        </mxCell>
        <mxCell id="NQIvPv-o4hWY-YjERhu4-2" value="" style="endArrow=none;html=1;rounded=0;strokeWidth=0.5;strokeColor=#666666;" edge="1" parent="1">
          <mxGeometry width="50" height="50" relative="1" as="geometry">
            <mxPoint x="280" y="160" as="sourcePoint" />
            <mxPoint x="560" y="160" as="targetPoint" />
          </mxGeometry>
        </mxCell>
        <mxCell id="NQIvPv-o4hWY-YjERhu4-3" value="" style="endArrow=none;html=1;rounded=0;strokeWidth=0.5;strokeColor=#666666;" edge="1" parent="1">
          <mxGeometry width="50" height="50" relative="1" as="geometry">
            <mxPoint x="280" y="120" as="sourcePoint" />
            <mxPoint x="560" y="120" as="targetPoint" />
          </mxGeometry>
        </mxCell>
        <mxCell id="M9vOz32p_Q3FY6fxcTtE-22" value="" style="endArrow=none;html=1;rounded=0;strokeColor=#0000FF;strokeWidth=2;" parent="1" edge="1">
          <mxGeometry width="50" height="50" relative="1" as="geometry">
            <mxPoint x="400" y="180" as="sourcePoint" />
            <mxPoint x="480" y="180" as="targetPoint" />
          </mxGeometry>
        </mxCell>
        <mxCell id="M9vOz32p_Q3FY6fxcTtE-21" value="" style="endArrow=none;html=1;rounded=0;strokeColor=#0000FF;strokeWidth=2;" parent="1" edge="1">
          <mxGeometry width="50" height="50" relative="1" as="geometry">
            <mxPoint x="480" y="160" as="sourcePoint" />
            <mxPoint x="480" y="180" as="targetPoint" />
          </mxGeometry>
        </mxCell>
        <mxCell id="M9vOz32p_Q3FY6fxcTtE-20" value="" style="endArrow=none;html=1;rounded=0;strokeColor=#0000FF;strokeWidth=2;endFill=0;fontColor=none;noLabel=1;" parent="1" edge="1">
          <mxGeometry width="50" height="50" relative="1" as="geometry">
            <mxPoint x="480" y="160" as="sourcePoint" />
            <mxPoint x="560" y="160" as="targetPoint" />
          </mxGeometry>
        </mxCell>
        <mxCell id="M9vOz32p_Q3FY6fxcTtE-1" value="" style="endArrow=classic;html=1;rounded=0;" parent="1" edge="1">
          <mxGeometry width="50" height="50" relative="1" as="geometry">
            <mxPoint x="280" y="240" as="sourcePoint" />
            <mxPoint x="560" y="240" as="targetPoint" />
          </mxGeometry>
        </mxCell>
        <mxCell id="M9vOz32p_Q3FY6fxcTtE-2" value="time" style="edgeLabel;html=1;align=center;verticalAlign=middle;resizable=0;points=[];fontFamily=&quot;Latin Modern Regular 12&quot;;fontSize=12;" parent="M9vOz32p_Q3FY6fxcTtE-1" vertex="1" connectable="0">
          <mxGeometry x="0.6806" y="-1" relative="1" as="geometry">
            <mxPoint x="-95" y="9" as="offset" />
          </mxGeometry>
        </mxCell>
        <mxCell id="M9vOz32p_Q3FY6fxcTtE-3" value="" style="endArrow=classic;html=1;rounded=0;" parent="1" edge="1">
          <mxGeometry width="50" height="50" relative="1" as="geometry">
            <mxPoint x="280" y="240" as="sourcePoint" />
            <mxPoint x="280" y="100" as="targetPoint" />
          </mxGeometry>
        </mxCell>
        <mxCell id="M9vOz32p_Q3FY6fxcTtE-4" value="speed (tiles per second)" style="edgeLabel;html=1;align=center;verticalAlign=middle;resizable=0;points=[];fontFamily=&quot;Latin Modern Regular 12&quot;;fontSize=12;horizontal=0;" parent="M9vOz32p_Q3FY6fxcTtE-3" vertex="1" connectable="0">
          <mxGeometry x="0.6806" y="-4" relative="1" as="geometry">
            <mxPoint x="-41" y="48" as="offset" />
          </mxGeometry>
        </mxCell>
        <mxCell id="M9vOz32p_Q3FY6fxcTtE-5" value="1" style="endArrow=none;html=1;rounded=0;fontSize=12;fontFamily=&quot;Latin Modern Regular 12&quot;;fontStyle=1" parent="1" edge="1">
          <mxGeometry x="-1" y="-10" width="50" height="50" relative="1" as="geometry">
            <mxPoint x="270" y="200" as="sourcePoint" />
            <mxPoint x="280" y="200" as="targetPoint" />
            <mxPoint x="-10" y="-10" as="offset" />
          </mxGeometry>
        </mxCell>
        <mxCell id="M9vOz32p_Q3FY6fxcTtE-6" value="2" style="endArrow=none;html=1;rounded=0;fontSize=12;fontFamily=&quot;Latin Modern Regular 12&quot;;fontStyle=1" parent="1" edge="1">
          <mxGeometry x="-1" y="-10" width="50" height="50" relative="1" as="geometry">
            <mxPoint x="270" y="160" as="sourcePoint" />
            <mxPoint x="280" y="160" as="targetPoint" />
            <mxPoint x="-10" y="-10" as="offset" />
          </mxGeometry>
        </mxCell>
        <mxCell id="M9vOz32p_Q3FY6fxcTtE-8" value="0" style="endArrow=none;html=1;rounded=0;fontSize=12;fontFamily=&quot;Latin Modern Regular 12&quot;;fontStyle=1" parent="1" edge="1">
          <mxGeometry x="-1" y="-10" width="50" height="50" relative="1" as="geometry">
            <mxPoint x="270" y="240" as="sourcePoint" />
            <mxPoint x="280" y="240" as="targetPoint" />
            <mxPoint x="-10" y="-10" as="offset" />
          </mxGeometry>
        </mxCell>
        <mxCell id="M9vOz32p_Q3FY6fxcTtE-9" value="in slowing range (Ã—0.75)" style="endArrow=baseDash;html=1;rounded=0;fontFamily=&quot;Latin Modern Regular 12&quot;;fontSize=12;startArrow=baseDash;startFill=0;endFill=0;" parent="1" edge="1">
          <mxGeometry y="10" width="50" height="50" relative="1" as="geometry">
            <mxPoint x="320" y="130" as="sourcePoint" />
            <mxPoint x="480" y="130" as="targetPoint" />
            <mxPoint as="offset" />
          </mxGeometry>
        </mxCell>
        <mxCell id="M9vOz32p_Q3FY6fxcTtE-10" value="below half HP (+1 t/s)" style="endArrow=classic;html=1;rounded=0;fontFamily=&quot;Latin Modern Regular 12&quot;;fontSize=12;startArrow=baseDash;startFill=0;endFill=1;" parent="1" edge="1">
          <mxGeometry y="10" width="50" height="50" relative="1" as="geometry">
            <mxPoint x="400" y="110" as="sourcePoint" />
            <mxPoint x="560" y="110" as="targetPoint" />
            <mxPoint as="offset" />
          </mxGeometry>
        </mxCell>
        <mxCell id="M9vOz32p_Q3FY6fxcTtE-11" value="" style="endArrow=none;html=1;rounded=0;strokeColor=#FF0000;strokeWidth=2;" parent="1" edge="1">
          <mxGeometry width="50" height="50" relative="1" as="geometry">
            <mxPoint x="280" y="200" as="sourcePoint" />
            <mxPoint x="320" y="200" as="targetPoint" />
          </mxGeometry>
        </mxCell>
        <mxCell id="M9vOz32p_Q3FY6fxcTtE-12" value="" style="endArrow=none;html=1;rounded=0;strokeColor=#FF0000;strokeWidth=2;" parent="1" edge="1">
          <mxGeometry width="50" height="50" relative="1" as="geometry">
            <mxPoint x="320" y="210" as="sourcePoint" />
            <mxPoint x="400" y="210" as="targetPoint" />
          </mxGeometry>
        </mxCell>
        <mxCell id="M9vOz32p_Q3FY6fxcTtE-13" value="" style="endArrow=none;html=1;rounded=0;strokeColor=#FF0000;strokeWidth=2;" parent="1" edge="1">
          <mxGeometry width="50" height="50" relative="1" as="geometry">
            <mxPoint x="320" y="200" as="sourcePoint" />
            <mxPoint x="320" y="210" as="targetPoint" />
          </mxGeometry>
        </mxCell>
        <mxCell id="M9vOz32p_Q3FY6fxcTtE-14" value="" style="endArrow=none;html=1;rounded=0;strokeColor=#FF0000;strokeWidth=2;" parent="1" edge="1">
          <mxGeometry width="50" height="50" relative="1" as="geometry">
            <mxPoint x="400" y="170" as="sourcePoint" />
            <mxPoint x="400" y="210" as="targetPoint" />
          </mxGeometry>
        </mxCell>
        <mxCell id="M9vOz32p_Q3FY6fxcTtE-15" value="" style="endArrow=none;html=1;rounded=0;strokeColor=#FF0000;strokeWidth=2;" parent="1" edge="1">
          <mxGeometry width="50" height="50" relative="1" as="geometry">
            <mxPoint x="400" y="170" as="sourcePoint" />
            <mxPoint x="480" y="170" as="targetPoint" />
          </mxGeometry>
        </mxCell>
        <mxCell id="M9vOz32p_Q3FY6fxcTtE-16" value="" style="endArrow=none;html=1;rounded=0;strokeColor=#FF0000;strokeWidth=2;" parent="1" edge="1">
          <mxGeometry width="50" height="50" relative="1" as="geometry">
            <mxPoint x="480" y="147" as="sourcePoint" />
            <mxPoint x="480" y="170" as="targetPoint" />
          </mxGeometry>
        </mxCell>
        <mxCell id="M9vOz32p_Q3FY6fxcTtE-17" value="" style="endArrow=none;html=1;rounded=0;strokeColor=#FF0000;strokeWidth=2;endFill=0;" parent="1" edge="1">
          <mxGeometry width="50" height="50" relative="1" as="geometry">
            <mxPoint x="480" y="147" as="sourcePoint" />
            <mxPoint x="560" y="147" as="targetPoint" />
          </mxGeometry>
        </mxCell>
        <mxCell id="M9vOz32p_Q3FY6fxcTtE-18" value="actual speed" style="text;strokeColor=none;fillColor=none;align=left;verticalAlign=middle;spacingLeft=4;spacingRight=4;overflow=hidden;points=[[0,0.5],[1,0.5]];portConstraint=eastwest;rotatable=0;whiteSpace=wrap;html=1;fontColor=#FF0000;fontFamily=&quot;Latin Modern Regular 12&quot;;" parent="1" vertex="1">
          <mxGeometry x="480" y="127" width="80" height="20" as="geometry" />
        </mxCell>
        <mxCell id="M9vOz32p_Q3FY6fxcTtE-19" value="expected speed" style="text;strokeColor=none;fillColor=none;align=left;verticalAlign=middle;spacingLeft=4;spacingRight=4;overflow=hidden;points=[[0,0.5],[1,0.5]];portConstraint=eastwest;rotatable=0;whiteSpace=wrap;html=1;fontColor=#0000FF;fontFamily=&quot;Latin Modern Regular 12&quot;;" parent="1" vertex="1">
          <mxGeometry x="480" y="160" width="90" height="20" as="geometry" />
        </mxCell>
        <mxCell id="M9vOz32p_Q3FY6fxcTtE-23" value="3" style="endArrow=none;html=1;rounded=0;fontSize=12;fontFamily=&quot;Latin Modern Regular 12&quot;;fontStyle=1" parent="1" edge="1">
          <mxGeometry x="-1" y="-10" width="50" height="50" relative="1" as="geometry">
            <mxPoint x="270" y="120" as="sourcePoint" />
            <mxPoint x="280" y="120" as="targetPoint" />
            <mxPoint x="-10" y="-10" as="offset" />
          </mxGeometry>
        </mxCell>
      </root>
    </mxGraphModel>
  </diagram>
</mxfile>
